<svg width="32" height="36" viewBox="0 0 32 36" fill="none" xmlns="http://www.w3.org/2000/svg">
<g clip-path="url(#clip0_158_293)">
<path d="M13.2892 4.6402L14.8379 3.10034C15.4936 2.44832 16.554 2.44832 17.2027 3.10034L30.764 16.5776C31.4197 17.2296 31.4197 18.284 30.764 18.929L17.2027 32.4133C16.547 33.0653 15.4866 33.0653 14.8379 32.4133L13.2892 30.8734C12.6265 30.2145 12.6404 29.1393 13.3171 28.4942L21.7232 20.5313H1.67423C0.746428 20.5313 0 19.7891 0 18.8666V16.647C0 15.7245 0.746428 14.9823 1.67423 14.9823H21.7232L13.3171 7.01937C12.6335 6.37429 12.6195 5.29916 13.2892 4.6402Z" fill="#FFB84F"/>
</g>
<defs>
<clipPath id="clip0_158_293">
<rect width="31.2523" height="35.514" fill="white"/>
</clipPath>
</defs>
</svg>
