<svg id="Layer_1" data-name="Layer 1" xmlns="http://www.w3.org/2000/svg" viewBox="0 0 692.18 459.01"><defs><style>.cls-1,.cls-4{fill:#f9b865;}.cls-2,.cls-3{fill:none;}.cls-2{stroke:#fff;stroke-width:5px;}.cls-2,.cls-3,.cls-4{stroke-linecap:round;stroke-miterlimit:10;}.cls-3{stroke:#868686;stroke-width:14px;}.cls-4{stroke:#f9b964;}.cls-5{font-size:16.88px;fill:#fff;font-family:Montserrat-Black, Montserrat;font-weight:800;}.cls-6{letter-spacing:-0.01em;}.cls-7{letter-spacing:0.01em;}.cls-8{letter-spacing:-0.03em;}.cls-9{letter-spacing:0em;}.cls-10{letter-spacing:-0.01em;}.cls-11{letter-spacing:0em;}.cls-12{letter-spacing:-0.01em;}</style></defs><path class="cls-1" d="M291.09,495.94s-13.17,45.71-14.26,59.24a103.51,103.51,0,0,0,1.46,26s6.22,28.89-27.79,36.94-39.5,0-39.5,0-12.43-4,11.71-23,15.35-52.29,15.35-52.29-7.31-23.77-4-58.15c0,0-38.76,13.53-63.26-70.21,0,0-3.29-15.72-15.36-26s-36.57-46.08-36.57-46.08-9.51,8.78-51.56,2.56c0,0-20.11,1.47-21.58-17.18,0,0-2.56-16.46,7.32-22.31s15.36-18.65,15.36-18.65-4.76-26.7-3.29-38c0,0-32.92,3.65-40.23-29.26,0,0-8.41-19,27.06-11.33,0,0,27.43,12.8,39.49-5.49s25.24-18.28,25.24-18.28a31.4,31.4,0,0,1,27.79,13.89c10.6,15.73,20.84,4.39,20.84,4.39s11.34-7.68,36.94-.73c0,0,9.5,3.29-4.39,20.48,0,0,7.68,5.85,38.4-2.2s20.47-10.6,68.38-4.38,150.66,15.35,233.31-3.66,115.19-1.46,115.19-1.46,30.35,6.58,41.68,91.78c0,0,4.76,120.31,2.93,129.46s15.36,62.89,15.36,62.89,5.12,25.24,2.19,37.3-7.31,10.61-5.48,25.6c0,0-4,1.46-9.88-2.19s-.73-16.46-.73-16.46,0-13.9-11.7-34c0,0-6.6-12.35-7.29-42.08a263,263,0,0,1,1.44-32.88A544.56,544.56,0,0,0,678,360.64c-4.39-35.11-1.46-42.06-13.16-83.38,0,0,16.09,75.33,5.85,121.41,0,0-6.75,40.84,9.71,69.37,0,0-7.52,37.41-6.42,72.51,0,0-.73,52.54-2.93,60.83,0,0-1.21,11.46.49,18s.61,10.12-8.17,13.77-21.81,10.36-37.66,10.12-13.17-14.14-13.17-14.14-1.46-2.92,14.63-20.23,13.41-49.49,13.41-49.49-13.22-70-13.41-70.26c0,0-11.7,68.18-6.21,102.92,0,0,4.38,16.09-6.22,20.36s-28.28,4.15-28.28,4.15-24.26-.37-6.83-20.6c0,0,10-7.93,10.24-23.29s1.34-59.12,1.34-59.12-13.41,11.71-24.74,13.78c0,0-12.31,29.86-19.5.12,0,0-2.2-6.7-6.22-.49,0,0-11.83,19.75-17.55-3.17s-33.65-28.52-33.65-28.52-11.46-4.88-12.8-14.87c0,0-61.8,21.21-121.89-6.83,0,0-10.81,55.59-14.38,63.71s-9.92,40.64-8,64.53l1.95,23.89s-.16,7.8-14.63,10.89-35.26,1.78-38.35-.33-9.92-6.17-6-15.11.65-5,8.77-16.91,8.94-18.52,9.43-24-.81-17.39-3.09-30.55a49.8,49.8,0,0,1,1.14-22.92S295.52,508,291.09,495.94Z" transform="translate(-24 -184.31)"/><path class="cls-2" d="M166.78,262.58s-13.53,53.75-39.5,63.63" transform="translate(-24 -184.31)"/><path class="cls-2" d="M206,235.45s6.58,130.79-33.65,152.74" transform="translate(-24 -184.31)"/><path class="cls-2" d="M189.38,422.56s117.55,12.8,189.23-5.12c0,0,49.73-32.91,87.4-31.81,0,0,34.37,10.23,45.71,11.7s43.88.73,56.31,21.94,64,27.83,96.91,22.67" transform="translate(-24 -184.31)"/><path class="cls-2" d="M573.88,486.92s18.3-44.24,70.22-43.33" transform="translate(-24 -184.31)"/><path class="cls-3" d="M570.41,487.59" transform="translate(-24 -184.31)"/><path class="cls-2" d="M295.23,233.38s35.35,34.86,44.13,76.06c0,0,5.36,20.72,16.58,34.62s24.13,53.15,21,71.92l-.38,2" transform="translate(-24 -184.31)"/><path class="cls-2" d="M391.53,237.28s19.75,23.4,40,65.33S453,343.33,453,343.33s11,18.28,10,40.22l-.1,2.06s4.73,31.42,8.31,43,8.61,35.43,10.56,38,9.75,0,9.75,0" transform="translate(-24 -184.31)"/><path class="cls-2" d="M475.15,231.43s18.28,23.4,26.82,58.75c0,0,5.12,18,5.36,44.37s3.91,57.95,7.56,63.1" transform="translate(-24 -184.31)"/><path class="cls-2" d="M561.25,231.43s23.37,112.75,8.52,189.3" transform="translate(-24 -184.31)"/><path class="cls-2" d="M289.69,459.21s1.07-2.52-6.4-13.41S274.83,427,274.83,427" transform="translate(-24 -184.31)"/><path class="cls-2" d="M357.07,464.82s13.53-26.83,13-45.44" transform="translate(-24 -184.31)"/><text x="-24" y="-184.31"/><text x="-24" y="-184.31"/><text x="-24" y="-184.31"/><text x="-24" y="-184.31"/><path class="cls-4" d="M171.85,418" transform="translate(-24 -184.31)"/><text class="cls-5" transform="translate(114.07 162.14)">NECK</text><text class="cls-5" transform="translate(210.86 176.59)">CHUCK</text><text class="cls-5" transform="translate(222.93 295.43)">BRISKET</text><text class="cls-5" transform="translate(353.39 150.06)">RIB</text><text class="cls-5" transform="translate(367.53 269.73)"><tspan class="cls-6">P</tspan><tspan class="cls-7" x="12.37" y="0">L</tspan><tspan class="cls-8" x="22.95" y="0">A</tspan><tspan x="35.96" y="0">TE</tspan></text><text class="cls-5" transform="translate(478.24 266.14)">F<tspan class="cls-7" x="10.87" y="0">L</tspan><tspan class="cls-9" x="21.45" y="0">ANK</tspan></text><text class="cls-5" transform="translate(559.5 158.69)">ROUND</text><text class="cls-5" transform="translate(426.11 76.19) rotate(72.95)">SHO<tspan class="cls-10" x="38.97" y="0">R</tspan><tspan x="51.37" y="0">T </tspan><tspan class="cls-6" x="67.47" y="0">L</tspan><tspan class="cls-11" x="77.71" y="0">OIN</tspan></text><text class="cls-5" transform="translate(505.64 64.25) rotate(72.95)"><tspan class="cls-6">T</tspan><tspan x="10.87" y="0">OP</tspan><tspan x="-17.94" y="20.25">SIR</tspan><tspan class="cls-6" x="11.63" y="20.25">L</tspan><tspan x="21.87" y="20.25">OIN</tspan></text><text class="cls-5" transform="translate(514.67 135.42) rotate(72.95)">Bo<tspan class="cls-10" x="24.49" y="0">t</tspan><tspan class="cls-12" x="32.08" y="0">t</tspan><tspan x="39.59" y="0">om</tspan><tspan x="-2.51" y="20.25">SIR</tspan><tspan class="cls-6" x="27.06" y="20.25">L</tspan><tspan x="37.3" y="20.25">OIN</tspan></text></svg>